<svg version="1.0" xmlns="http://www.w3.org/2000/svg"
     viewBox="0 0 75 75" width="100%" height="100%" style="margin: auto;">
    <g fill="##1D5556
">
        <path d="M44.8 35.7c2.7-2.7 6.9-5.2 10.9-5.2 5.1 0 9.2 4.1 9.2 9.2m-24.1-.1L15.5 64.9c13.8 10.9 33.9 10 46.7-2.8C75 49.3 75.9 29.2 65 15.4m-.1 24.3c0 5.1-4.1 9.2-9.2 9.2-7.3 0-15.4-8.6-15.4-8.6l-6.1-6.1s-8.2-8.6-15.4-8.6c-5.1 0-9.2 4.1-9.2 9.2m0 0c0 5.1 4.1 9.2 9.2 9.2 4 0 8.3-2.6 10.9-5.2m4-3.9L59 9.5C45.2-1.4 25.1-.5 12.3 12.3-.4 25.1-1.4 45.2 9.5 59"
              fill="none" stroke="#b4dad0" stroke-width="5" stroke-miterlimit="10"></path>
    </g>
</svg>
